<?xml version="1.0" encoding="UTF-8"?>
<svg width="100px" height="15px" viewBox="0 0 100 15" version="1.1" xmlns="http://www.w3.org/2000/svg" xmlns:xlink="http://www.w3.org/1999/xlink">
    <!-- Generator: Sketch 59 (86127) - https://sketch.com -->
    <title>Group 34</title>
    <desc>Created with Sketch.</desc>
    <defs>
        <polygon id="path-1" points="0 0.00670479063 9.62060124 0.00670479063 9.62060124 7.88909112 0 7.88909112"></polygon>
        <polygon id="path-3" points="0.0158509964 0.00326667987 2.51217106 0.00326667987 2.51217106 2.39742884 0.0158509964 2.39742884"></polygon>
        <polygon id="path-5" points="0.00698516007 0.0139631349 8.42850921 0.0139631349 8.42850921 8.27302511 0.00698516007 8.27302511"></polygon>
    </defs>
    <g id="Page-1" stroke="none" stroke-width="1" fill="none" fill-rule="evenodd">
        <g id="1.-Devoluções---Listagem" transform="translate(-670.000000, -154.000000)">
            <g id="Group-34" transform="translate(670.000000, 154.000000)">
                <g id="Group-3" transform="translate(0.000000, 3.085231)">
                    <mask id="mask-2" fill="white">
                        <use xlink:href="#path-1"></use>
                    </mask>
                    <g id="Clip-2"></g>
                    <path d="M7.21323896,3.40779252 C7.016961,3.74338943 6.82652346,4.06881014 6.6363037,4.39434963 C6.34410414,4.89438923 6.0475886,5.39197387 5.76176401,5.89563651 C5.60807167,6.16643437 5.38963968,6.30048703 5.07706791,6.29201346 C4.83644229,6.2854801 4.5954801,6.28900416 4.3546961,6.29092457 C4.05174619,6.29335973 3.8362839,6.16071273 3.6903722,5.89421105 C3.28589784,5.15546624 2.87518709,4.42010691 2.46683231,3.6834805 C2.44950901,3.65225896 2.43081964,3.62178974 2.39894476,3.56736488 C2.38276975,3.81929519 2.36803999,4.04629974 2.3536666,4.27332409 C2.3097545,4.96659275 2.2659414,5.65986141 2.22218769,6.35314987 C2.20040982,6.69817066 2.17859236,7.04319145 2.15721045,7.38823203 C2.13798654,7.69850723 1.95380519,7.88183726 1.64402495,7.88540091 C1.25483469,7.88987527 0.86550584,7.8895783 0.476315581,7.88563849 C0.156616512,7.8824114 -0.0148346862,7.7089408 0.00100376163,7.38722233 C0.0188022174,7.02576915 0.0553890319,6.66520689 0.0851059196,6.30436745 C0.128047911,5.78276777 0.172316373,5.26128687 0.215753316,4.73972679 C0.266574936,4.12960998 0.317356959,3.51951297 0.367663829,2.90933676 C0.409873292,2.39757672 0.450855276,1.88571768 0.493381509,1.37395763 C0.518188478,1.07550188 0.539313007,0.776590774 0.572375767,0.479006137 C0.60581469,0.177877648 0.780849337,0.0186418531 1.08518511,0.0129202138 C1.43470006,0.00634725797 1.78449218,0.00803009305 2.13410612,0.0121876856 C2.41763413,0.0155731538 2.61561473,0.155980994 2.75105326,0.402882598 C3.40615126,1.59706197 4.06453574,2.78941992 4.72183132,3.98239161 C4.73755098,4.01092061 4.75418135,4.03897446 4.77118788,4.06863195 C4.80658681,4.05099188 4.81450604,4.01755296 4.8302059,3.99104336 C5.53151257,2.80767373 6.23537319,1.62578895 6.93103742,0.439132845 C7.10514156,0.14214215 7.34075827,-0.00820431598 7.68971887,0.00787170857 C7.94976638,0.0198495347 8.2108038,0.00983171649 8.47140566,0.010346466 C8.87029697,0.0111383884 9.04727183,0.169404078 9.07938428,0.564058602 C9.14291625,1.34491388 9.20177589,2.12614532 9.26435755,2.90705999 C9.33349238,3.76999802 9.40498317,4.63277767 9.47483073,5.49565631 C9.52210849,6.07967927 9.56863393,6.66376163 9.61466442,7.24788359 C9.61957434,7.31018808 9.62127697,7.37296773 9.62036626,7.4354702 C9.61654524,7.70276381 9.4618432,7.87696694 9.19538111,7.88237181 C8.74695506,7.89145912 8.29809345,7.89120174 7.84966739,7.88237181 C7.5914611,7.8773035 7.41757474,7.69801227 7.40169669,7.43236191 C7.37657296,7.01167294 7.36039794,6.59044942 7.34192635,6.16938428 C7.30211245,5.26140566 7.26324886,4.35340725 7.22373193,3.44542863 C7.22335577,3.43713324 7.21929717,3.42901604 7.21323896,3.40779252" id="Fill-1" fill="#0F87FE" mask="url(#mask-2)"></path>
                </g>
                <path d="M78.2633736,10.0270719 C78.0933281,10.2284577 77.924312,10.3984043 77.7309048,10.5431875 C77.2760839,10.8836943 76.7598891,11.0635399 76.1998218,11.1292695 C75.666858,11.1918511 75.1394377,11.1738547 74.6265888,11.0014928 C73.7879826,10.7196476 73.2341517,10.1381588 72.8977232,9.33629776 C72.6800832,8.817549 72.5693328,8.27173629 72.5643635,7.71224312 C72.5522669,6.3552643 72.5562859,4.9981271 72.5568402,3.6410493 C72.5569986,3.28571372 72.7463869,3.0991368 73.1018214,3.09636508 C73.4811324,3.09339537 73.8604633,3.09490002 74.2398139,3.09567214 C74.6518709,3.09650366 74.8334389,3.27933874 74.8336963,3.69606811 C74.834409,4.87858642 74.834607,6.06110473 74.8335379,7.24362304 C74.8332607,7.56498515 74.8666997,7.88076421 74.9736092,8.18571372 C75.1895466,8.80159176 75.6704019,9.1522154 76.3235597,9.17134033 C77.2061374,9.19719659 77.8320927,8.69468224 78.0245496,7.81006533 C78.0809939,7.55073055 78.0939616,7.28840626 78.0942586,7.02499307 C78.0955454,5.92483469 78.0946941,4.8246763 78.0950901,3.72449812 C78.0950901,3.66199564 78.095585,3.5991566 78.1017422,3.53705009 C78.1256979,3.2950782 78.2953079,3.11457929 78.5380519,3.10434369 C78.9993071,3.0848822 79.461473,3.08529796 79.9227282,3.10410612 C80.1673728,3.11408434 80.3343892,3.29036626 80.3613146,3.53449614 C80.3685211,3.59979014 80.3719461,3.66585627 80.3719461,3.73156603 C80.3725005,5.93190259 80.3693724,8.13223916 80.3749801,10.3325559 C80.3760839,10.7695387 80.187448,10.9952564 79.7291031,10.9745476 C79.4723421,10.962946 79.214611,10.9737755 78.9573352,10.9719739 C78.6320531,10.9696971 78.4337161,10.8088775 78.3622649,10.4908612 C78.3292615,10.3439002 78.2993269,10.1962661 78.2633736,10.0270719" id="Fill-4" fill="#0F87FE"></path>
                <path d="M50.9245734,4.03944565 C51.0701683,3.86932093 51.2116452,3.71869729 51.3717917,3.58705999 C51.8668224,3.18005147 52.4418571,2.97973471 53.0748802,2.92346862 C53.5671392,2.87973471 54.050192,2.91370818 54.5161196,3.08620867 C55.3137438,3.38151653 55.833819,3.9573233 56.1540131,4.72812116 C56.3842249,5.28226886 56.487749,5.86389626 56.4909167,6.46088695 C56.4979252,7.77836864 56.4969749,9.09588992 56.495589,10.4133914 C56.4951732,10.7916333 56.3058642,10.9713601 55.9237418,10.972251 C55.5477173,10.9731222 55.1716927,10.9731024 54.7956682,10.972251 C54.4086755,10.9713601 54.2198218,10.7847436 54.2185547,10.3952168 C54.216377,9.71998416 54.2179014,9.04475153 54.2178816,8.36951891 C54.2178618,7.85239359 54.217545,7.33526826 54.2179608,6.81814294 C54.2182578,6.44031677 54.1803445,6.06850921 54.0318392,5.71646011 C53.8177628,5.20889725 53.4290279,4.94378143 52.8826411,4.90173035 C51.9483508,4.829804 51.3520927,5.42148881 51.1640309,6.25457137 C51.1048545,6.51673728 51.0939458,6.78272421 51.0937082,7.04952287 C51.0927183,8.14964166 51.0866007,9.24983964 51.0966779,10.3498792 C51.1005979,10.7753593 50.8949555,10.9909008 50.4653376,10.9751812 C50.1029935,10.9619363 49.7397783,10.9734587 49.376959,10.9720927 C49.0183568,10.9707662 48.8362344,10.7963849 48.8167531,10.4387329 C48.8149713,10.4058879 48.8157434,10.3728648 48.8157434,10.3399406 C48.8157038,8.13639675 48.8157038,5.9328331 48.8157236,3.72926945 C48.8157236,3.69961196 48.8153079,3.66995446 48.81608,3.64033657 C48.8250683,3.28672342 49.0124173,3.09951297 49.3658721,3.09626609 C49.6528054,3.09365274 49.9397981,3.09361315 50.2267313,3.09624629 C50.5604078,3.09933479 50.754607,3.25861018 50.826474,3.58323896 C50.8589824,3.73006137 50.8897684,3.87724015 50.9245734,4.03944565" id="Fill-6" fill="#0F87FE"></path>
                <path d="M40.8556266,8.91705801 L40.9836013,8.91705801 C41.9994001,8.91705801 43.0152386,8.91705801 44.0310374,8.91705801 C44.0969848,8.91705801 44.1623382,8.91864185 44.2278499,8.93117402 C44.4632291,8.97625421 44.6244447,9.14006335 44.6302257,9.37678875 C44.6394516,9.75526826 44.6402237,10.1343219 44.6304039,10.5127618 C44.6237121,10.7695031 44.4298693,10.9512889 44.172158,10.9697208 C44.1228806,10.9732251 44.0732667,10.972354 44.0238111,10.972354 C42.2032409,10.9724972 40.3826906,10.9724972 38.5621402,10.9721758 C38.496272,10.972156 38.4292358,10.9749673 38.3647535,10.964316 C38.1269788,10.9250366 37.9706731,10.7755811 37.9516274,10.5274124 C37.9282459,10.2225619 37.9294734,9.9151178 37.9527559,9.60969313 C37.9693467,9.39217185 38.0761374,9.21038606 38.2177331,9.04782419 C39.284512,7.82289844 40.3510335,6.5977549 41.4175945,5.37263116 C41.4775827,5.30371412 41.5370362,5.23436151 41.5988854,5.16277173 C41.5587349,5.13667789 41.5219105,5.14845773 41.4876401,5.14841814 C40.5476876,5.14760641 39.6077351,5.14812116 38.6677826,5.14715106 C38.5889071,5.14705207 38.5080717,5.14746783 38.4315918,5.13135221 C38.1941536,5.0813819 38.0502019,4.90070481 38.0456484,4.63748961 C38.039709,4.29506236 38.039412,3.95237775 38.0455098,3.6099703 C38.0510731,3.29698278 38.241768,3.11032667 38.5544189,3.09684419 C38.5939359,3.09514156 38.6335518,3.09546922 38.6731281,3.09546922 C40.4013403,3.09546922 42.1295328,3.09546922 43.857745,3.0956959 C43.9170402,3.0957157 43.9766126,3.09634924 44.0355712,3.1018135 C44.2763354,3.12416551 44.4523005,3.28355969 44.4730093,3.52275985 C44.5014195,3.85091269 44.5020531,4.18108493 44.4703168,4.50903979 C44.4503999,4.71493962 44.3416888,4.88585627 44.2075371,5.04073649 C43.1116551,6.30579291 42.0162681,7.5712651 40.9208018,8.83671748 C40.9038349,8.85633736 40.8880558,8.87700653 40.8556266,8.91705801" id="Fill-8" fill="#0F87FE"></path>
                <path d="M87.426375,8.91705801 L87.5535973,8.91705801 C88.5695149,8.91705801 89.5854128,8.9170976 90.6013304,8.91697882 C90.6706434,8.91695902 90.7393229,8.91872105 90.807943,8.9324411 C91.0401148,8.97886755 91.1991328,9.14693328 91.2042803,9.3844506 C91.2123975,9.75972283 91.2133281,10.13549 91.2038646,10.5107028 C91.1974104,10.766474 91.0033696,10.9503781 90.7468462,10.9696417 C90.7008751,10.9730865 90.6545476,10.972354 90.6083785,10.972354 C88.7777509,10.9724398 86.9471431,10.9724398 85.1165353,10.9721758 C85.0572599,10.9721758 84.9969551,10.9742546 84.9388676,10.9647515 C84.7015482,10.9259473 84.542451,10.7746902 84.5243556,10.5288972 C84.5019046,10.2238883 84.5033102,9.91628588 84.5249495,9.61088101 C84.5403326,9.39411206 84.6476777,9.21147496 84.7894714,9.04867551 C85.8910552,7.78397545 86.9922233,6.51889923 88.0934508,5.2538626 C88.1168521,5.22693724 88.1392041,5.19908137 88.1658325,5.1671075 C88.122059,5.13699465 88.0787804,5.14833894 88.0387686,5.14829935 C87.1053098,5.14762621 86.1718511,5.14814096 85.2384122,5.14713126 C85.1595763,5.14703227 85.0786814,5.14721045 85.0022807,5.13083746 C84.7679311,5.08060978 84.6238012,4.90270441 84.6189309,4.64530984 C84.6122986,4.29628984 84.6112889,3.94693328 84.6190695,3.59797268 C84.625781,3.29585429 84.8164363,3.11248466 85.1194061,3.09724015 C85.1622095,3.09508216 85.2051515,3.09546485 85.2480143,3.09546485 C86.9763849,3.09546485 88.7047555,3.09537913 90.4331261,3.0956761 C90.5219204,3.0956959 90.6107939,3.09328054 90.6982023,3.11757276 C90.8889368,3.17063156 91.0206137,3.29599287 91.0388873,3.486569 C91.0728014,3.84010295 91.077355,4.19712136 91.0341952,4.55089289 C91.0104177,4.74602257 90.8984003,4.90407048 90.7714156,5.05065532 C89.6710988,6.32081964 88.5713562,7.59145912 87.4714948,8.8619996 C87.4610216,8.87411602 87.4511621,8.88674718 87.426375,8.91705801" id="Fill-10" fill="#0F87FE"></path>
                <path d="M68.2592734,5.76578301 C68.2592734,6.45422095 68.2589962,7.14265888 68.2595308,7.83109681 C68.2596298,7.96008117 68.2776658,8.08704613 68.3142724,8.21090279 C68.4354365,8.62084142 68.7678856,8.86926747 69.2302693,8.89460899 C69.305977,8.89874678 69.381962,8.89906355 69.4578084,8.89910315 C70.1340507,8.89943971 70.8103128,8.89870719 71.4865551,8.8995585 C71.8905147,8.90005345 72.082061,9.08870917 72.0804573,9.49300535 C72.0790913,9.83862008 72.10275,10.1852445 72.0680637,10.5296912 C72.0402871,10.8055375 71.8538883,10.9697228 71.5756266,10.9704158 C70.6025124,10.9729103 69.6292794,10.978236 68.6563037,10.9661196 C68.1872481,10.960299 67.7347238,10.8507563 67.3171233,10.6287408 C66.5705385,10.2318095 66.1672916,9.59019402 66.0094021,8.7771471 C65.95961,8.52080182 65.945395,8.26176401 65.9455326,8.00114235 C65.9463057,6.56817858 65.9457909,5.13521481 65.9462859,3.70225104 C65.9463057,3.63650168 65.9444843,3.56946545 65.9559077,3.50522075 C65.9984538,3.26584241 66.1644605,3.10751732 66.4114017,3.10229064 C66.8696476,3.09262918 67.3284082,3.09171847 67.7865947,3.10233023 C68.0566799,3.10856662 68.2284676,3.29298555 68.2497109,3.56214017 C68.2538487,3.61458523 68.2539675,3.66744605 68.2539873,3.72010889 C68.2542645,4.40199366 68.2541853,5.08389824 68.2541853,5.76578301 L68.2592734,5.76578301 Z" id="Fill-12" fill="#0F87FE"></path>
                <path d="M45.5034132,7.03662839 C45.5034132,5.91694912 45.5036706,4.79728965 45.502938,3.67761037 C45.5028786,3.59800238 45.5078677,3.51948327 45.530002,3.44314195 C45.5869016,3.24684419 45.7427321,3.11320729 45.956175,3.10344684 C46.2128767,3.09170659 46.4703702,3.09689368 46.7275272,3.09562661 C46.87922,3.09487428 47.0309721,3.09338943 47.1826054,3.09653732 C47.5135102,3.10340725 47.7002455,3.28745001 47.7148367,3.61805781 C47.7167175,3.66078202 47.715886,3.70366462 47.715886,3.74646803 C47.7159256,5.93971689 47.7160443,8.13294595 47.7154108,10.3261948 C47.715391,10.3983785 47.7125797,10.4712156 47.7026213,10.5425876 C47.6671035,10.7969333 47.4927816,10.9641675 47.2371689,10.9686023 C46.8184993,10.9758285 46.3994932,10.9763829 45.9808434,10.9685627 C45.7041853,10.9633954 45.5171926,10.7610988 45.5049376,10.4746605 C45.5007009,10.3760265 45.5034528,10.2770956 45.503433,10.1783033 C45.5033934,9.13108493 45.5034132,8.08386656 45.5034132,7.03662839" id="Fill-14" fill="#0F87FE"></path>
                <path d="M81.4415129,7.02682637 C81.4415129,5.93355771 81.4414433,4.84028905 81.4417402,3.74702039 C81.44176,3.68121164 81.4418194,3.61514552 81.4471451,3.54963374 C81.4675371,3.29853494 81.640196,3.1132647 81.8920669,3.10395961 C82.2477193,3.0908335 82.6041041,3.0969313 82.9601722,3.09576322 C83.0392259,3.09550584 83.1186953,3.09495149 83.1973134,3.10186102 C83.4523124,3.12431202 83.6269115,3.30342506 83.6449871,3.55866165 C83.6489269,3.61441299 83.6480558,3.67058008 83.6480558,3.7265294 C83.6481944,5.93282518 83.648234,8.13912097 83.6478974,10.3454167 C83.6478776,10.4144724 83.6509463,10.4846961 83.6401168,10.5524055 C83.6003623,10.8012869 83.417844,10.9659671 83.1636567,10.9694714 C82.7515601,10.9751732 82.3392457,10.9754504 81.9271491,10.9693724 C81.6533419,10.9653336 81.464409,10.7759256 81.4458384,10.5040784 C81.4417996,10.4450208 81.4417007,10.3856266 81.4416809,10.3263908 C81.4414631,9.2265294 81.4415129,8.12666799 81.4415129,7.02682637" id="Fill-16" fill="#0F87FE"></path>
                <path d="M82.5587884,2.41342308 C81.935486,2.41302712 81.4609068,2.0663433 81.3250129,1.52490596 C81.1550663,0.847812314 81.6125995,0.153335973 82.3026609,0.0410215799 C82.9852386,-0.0700851317 83.5805266,0.299326866 83.7481964,0.938032073 C83.9225777,1.60227678 83.4772006,2.28287468 82.7969392,2.39277371 C82.7120847,2.40647397 82.6273094,2.41663037 82.5587884,2.41342308" id="Fill-18" fill="#0F87FE"></path>
                <g id="Group-22" transform="translate(45.337557, 0.016531)">
                    <mask id="mask-4" fill="white">
                        <use xlink:href="#path-3"></use>
                    </mask>
                    <g id="Clip-21"></g>
                    <path d="M1.28876856,2.39694912 C0.656477925,2.39665215 0.172534152,2.03864383 0.0465788953,1.49178183 C-0.108024154,0.820390022 0.337016432,0.147810335 1.01646605,0.0260126708 C1.68661057,-0.094102158 2.29296575,0.270736488 2.46873292,0.899859434 C2.65637893,1.57154821 2.21654524,2.25929321 1.52575134,2.37560681 C1.44093645,2.38990101 1.35616116,2.39976044 1.28876856,2.39694912" id="Fill-20" fill="#0F87FE" mask="url(#mask-4)"></path>
                </g>
                <path d="M25.3113146,8.02821224 C24.9574045,8.59972283 24.4209958,8.8775094 23.7557216,8.91415561 C23.4362403,8.93173629 23.1236686,8.88913087 22.8268561,8.76610572 C22.1751633,8.49600079 21.8257474,7.99245694 21.7118689,7.3101564 C21.6906652,7.18305286 21.686765,7.05490002 21.686369,6.9265294 C21.6829044,6.61718472 21.729212,6.31587804 21.8512869,6.03076618 C22.1535241,5.32498515 22.7099485,4.97307464 23.4587309,4.90435557 C23.7589091,4.87679667 24.058335,4.90081172 24.3488121,4.98921006 C24.9171154,5.16214611 25.3161849,5.52148089 25.4966838,6.08974461 C25.7088992,6.75779054 25.6895169,7.41748169 25.3113146,8.02821224 M27.8485943,3.62999406 C27.8484162,3.29396159 27.6583944,3.10249456 27.3215898,3.09699069 C27.0017125,3.09176401 26.6816373,3.09231835 26.3617402,3.09669372 C26.009315,3.10150465 25.806761,3.29261532 25.7691645,3.64270441 C25.7578598,3.74810929 25.7410711,3.85292021 25.7226391,3.98845773 C25.6698773,3.92803405 25.6377648,3.88624035 25.6006038,3.84955454 C25.3478222,3.59980202 25.063819,3.39305088 24.7419818,3.2408038 C24.0655415,2.92078796 23.3519402,2.8438329 22.6189962,2.94527816 C21.3449515,3.12161948 20.4065829,3.7846763 19.8585132,4.94749555 C19.3538012,6.018333 19.3144823,7.13967531 19.6291526,8.27166898 C19.8567115,9.09029895 20.3041873,9.76790735 21.0109384,10.2571372 C21.6545734,10.7026925 22.3766086,10.875292 23.1529499,10.8524451 C24.0845674,10.8250445 24.8875569,10.5029697 25.5391507,9.82704415 C25.5626312,9.80267274 25.5791823,9.76695704 25.6259058,9.76012671 C25.6287369,10.0785785 25.6330133,10.3935854 25.5711245,10.7049099 C25.429212,11.4186894 25.0349139,11.9255197 24.3404573,12.1749951 C23.7280044,12.3950109 23.0984657,12.3835478 22.4662542,12.2837062 C22.0575035,12.2191447 21.668135,12.0890715 21.288923,11.9251633 C20.9717383,11.7880618 20.7516432,11.8707781 20.5952782,12.179806 C20.4661156,12.435102 20.3345377,12.6893288 20.2119283,12.9477529 C20.0571273,13.2740249 20.1368937,13.5081766 20.4541972,13.6822015 C21.0985448,14.0356167 21.7939121,14.2230647 22.5192536,14.3110671 C22.7049594,14.3335973 22.8913383,14.350584 23.0774005,14.3701247 L23.8295486,14.3701247 C23.8588695,14.3499901 23.8930212,14.3552564 23.9253118,14.3531974 C24.3315482,14.3273411 24.7290339,14.2539893 25.1167987,14.1307464 C26.7879529,13.5995842 27.8349535,12.2090477 27.8453475,10.4583449 C27.8588695,8.18230053 27.849802,5.9061176 27.8485943,3.62999406" id="Fill-23" fill="#0F87FE"></path>
                <g id="Group-27" transform="translate(91.566027, 2.887250)">
                    <mask id="mask-6" fill="white">
                        <use xlink:href="#path-5"></use>
                    </mask>
                    <g id="Clip-26"></g>
                    <path d="M5.99587408,5.1646565 C5.68668778,5.88128687 5.11155415,6.2371768 4.34156801,6.2820392 C3.91521679,6.30688577 3.50719857,6.22626807 3.14137003,5.99381905 C2.62982776,5.6687745 2.38577707,5.17859434 2.2926668,4.59805583 C2.26964166,4.45457929 2.26952287,4.3096179 2.26118788,4.19391804 C2.26722629,3.62975252 2.3813819,3.12674322 2.72246288,2.69746189 C3.06178183,2.27041774 3.51537517,2.05731142 4.05307068,2.01607206 C4.36120768,1.99245298 4.66526628,2.02024946 4.95889131,2.12460503 C5.47051277,2.30641061 5.83164918,2.65234211 6.02347258,3.15503465 C6.27888735,3.82446644 6.28080776,4.50433182 5.99587408,5.1646565 M7.91018808,0.210350426 C7.57720451,0.204925757 7.24392398,0.203658681 6.9109998,0.21102356 C6.58710354,0.218190457 6.38724213,0.412211443 6.35018016,0.73490002 C6.33735102,0.846719461 6.32050287,0.95806375 6.3008434,1.10415363 C6.22078004,1.01704217 6.16380123,0.948798258 6.10013067,0.887523263 C6.03614334,0.825971095 5.96784003,0.768279549 5.89737874,0.714191249 C5.03481687,0.0520055435 4.05322906,-0.102023362 3.01351416,0.0917798456 C1.83046129,0.312290636 0.980253415,0.99999604 0.465543457,2.07705009 C-0.0777549,3.21383488 -0.113351812,4.40104534 0.227610374,5.60019402 C0.474531776,6.46865571 0.949150663,7.19140368 1.70654524,7.70577707 C2.35744605,8.14778856 3.0834409,8.3126272 3.86473174,8.26515146 C4.79731934,8.20848941 5.60472382,7.87586221 6.26118788,7.20122352 C6.27809543,7.18386062 6.28969709,7.15426252 6.32592754,7.1626371 C6.35415957,7.32048703 6.38088695,7.47924767 6.41121758,7.63731538 C6.46293011,7.90647001 6.65534746,8.07786181 6.92580875,8.08241536 C7.26538507,8.0881766 7.60521877,8.08797862 7.94479509,8.08227678 C8.18310434,8.07825777 8.34629974,7.94129479 8.40959414,7.71177589 C8.41377153,7.69663037 8.42212631,7.68263314 8.42852108,7.66810137 L8.42852108,0.631514552 C8.31339537,0.317933083 8.19330034,0.214983172 7.91018808,0.210350426" id="Fill-25" fill="#0F87FE" mask="url(#mask-6)"></path>
                </g>
                <path d="M16.1910315,8.06095625 C15.8653336,8.77053851 15.2986537,9.1256761 14.5287468,9.17022174 C14.2163136,9.18829737 13.9103544,9.14363294 13.6189071,9.02524055 C13.1446248,8.83252623 12.8114433,8.49285092 12.6328648,8.01783607 C12.381964,7.35050287 12.3798654,6.67441893 12.6632548,6.01742031 C12.9668382,5.31361909 13.5270441,4.95388834 14.2871313,4.90177985 C14.6542863,4.87661651 15.0113047,4.92731934 15.3447832,5.09085132 C15.9194021,5.37259751 16.2204316,5.85592754 16.3467036,6.46495545 C16.3849535,6.64941398 16.3933281,6.83672342 16.3975846,6.99186102 C16.3949515,7.3828727 16.3418135,7.73242724 16.1910315,8.06095625 M18.6233221,3.61690556 C18.6222332,3.31740051 18.4424668,3.11114433 18.151376,3.10181944 C17.7890121,3.09019798 17.4257177,3.09152445 17.0632944,3.10237379 C16.8002574,3.11027321 16.6192041,3.27313205 16.5650168,3.52963572 C16.5354187,3.66974658 16.5210849,3.81306474 16.4974065,3.97154821 C16.3647199,3.83610968 16.2377351,3.71292615 16.0978618,3.60441299 C15.2779054,2.96820234 14.3383092,2.80263116 13.3403682,2.95521481 C12.1406058,3.13866363 11.2493566,3.79235597 10.7092457,4.87287468 C10.0565433,6.17869531 10.0508216,7.53096219 10.5626015,8.88295189 C10.8772124,9.71403484 11.4243714,10.3640447 12.2211443,10.7833676 C12.8050287,11.0906731 13.4310632,11.1946327 14.0868343,11.1511958 C14.7834092,11.1050663 15.4232429,10.9009483 15.9930707,10.4923758 C16.1780044,10.3597684 16.3458721,10.2073035 16.5167492,10.0244486 C16.5493764,10.2059374 16.5764799,10.3640843 16.6064344,10.5216967 C16.6571372,10.788436 16.8451,10.963035 17.1087903,10.9687567 C17.4549396,10.9762601 17.8015047,10.9757058 18.1476935,10.9689349 C18.3886557,10.9642229 18.5537517,10.8158563 18.6085924,10.5821006 C18.6239359,10.5167274 18.6238963,10.451572 18.6238963,10.3858622 C18.6240744,8.64008909 18.6240546,6.89433578 18.6240348,5.14856266 C18.6240348,4.63801029 18.6252227,4.12743813 18.6233221,3.61690556" id="Fill-28" fill="#0F87FE"></path>
                <path d="M34.6348862,8.0716571 C34.3237201,8.77799248 33.749121,9.12600277 32.9874698,9.1695585 C32.5678895,9.19355375 32.1661275,9.1144605 31.80412,8.89068303 C31.3155237,8.58866363 31.0641081,8.12964561 30.956961,7.58040784 C30.9228885,7.40567016 30.9075054,7.22861612 30.9118808,7.09145516 C30.9099406,6.64637498 30.9802831,6.25789745 31.1692556,5.89725599 C31.4852722,5.2941279 31.9944783,4.97373589 32.6643061,4.90586814 C32.9812928,4.87373589 33.2965571,4.90216591 33.6002594,5.00909523 C34.0897466,5.18143734 34.4476163,5.5043239 34.6453791,5.98121956 C34.9333617,6.67565631 34.9382914,7.38294199 34.6348862,8.0716571 M37.0745813,3.64851317 C37.0743833,3.28312017 36.8855692,3.09842407 36.5169887,3.09598891 C36.2168501,3.09400911 35.9166917,3.09420709 35.6165532,3.09585033 C35.2344506,3.09794892 35.0322332,3.28397149 34.9927559,3.66332211 C34.9825203,3.76175807 34.9660285,3.85956048 34.9485072,3.98565433 C34.8802237,3.91182736 34.8330845,3.85690754 34.7816294,3.80638289 C34.7299762,3.75564047 34.6758088,3.70707583 34.6196615,3.66132251 C33.7447654,2.94853296 32.7348862,2.77862601 31.6581291,2.98009107 C30.4472402,3.20666007 29.5898456,3.91990497 29.0826787,5.02990299 C28.5627618,6.16779648 28.5387072,7.34942388 28.8909939,8.53817858 C29.13843,9.37312215 29.5913106,10.0838329 30.3269471,10.5702712 C31.4900238,11.3393467 32.7154049,11.3322194 33.9603861,10.7813779 C34.3437557,10.6117482 34.6662265,10.3483746 34.9685429,10.028042 C34.9982004,10.1882875 35.0251653,10.329804 35.0504672,10.4716373 C35.1114453,10.8136686 35.293924,10.97039 35.638628,10.9720927 C35.932154,10.9735577 36.2257395,10.9734785 36.5192655,10.9721125 C36.8841437,10.9704098 37.0744427,10.7826054 37.0746011,10.4169353 C37.0756702,8.16078796 37.0757494,5.90464067 37.0745813,3.64851317" id="Fill-30" fill="#0F87FE"></path>
                <path d="M62.7633102,6.03127697 C62.249016,6.02955454 61.734702,6.03028707 61.2204078,6.03028707 C60.7060938,6.03028707 60.1917996,6.03034647 59.6774856,6.03016828 C59.6333954,6.03016828 59.5825737,6.04570976 59.6121323,5.96255791 C59.845591,5.30605425 60.2719026,4.84614532 60.9684379,4.69843199 C61.4708731,4.59187884 61.9556088,4.66018214 62.3657256,5.0044902 C62.6584399,5.25022372 62.7876618,5.58332607 62.843136,5.95182736 C62.8540051,6.02397149 62.8230608,6.03147496 62.7633102,6.03127697 M64.9594694,5.73557315 C64.706866,4.60355969 64.1046288,3.73539497 63.0368798,3.23155415 C62.3068462,2.88706791 61.5302475,2.80017422 60.7384835,2.91298357 C59.3485805,3.11102356 58.3423243,3.8555098 57.7350782,5.11684419 C57.2545595,6.11498317 57.2037181,7.16382499 57.4550544,8.22971293 C57.6869095,9.21306276 58.2089052,10.0036587 59.0769709,10.5450564 C59.6381865,10.8950663 60.257351,11.0730905 60.912944,11.1332766 C61.6623797,11.202055 62.4012235,11.1491942 63.1227638,10.9270996 C63.7314354,10.7397307 64.2676064,10.42706 64.7184082,9.97445654 C64.89176,9.8004118 64.9175965,9.60207484 64.7943932,9.39051277 C64.7615086,9.33402891 64.7211008,9.28077212 64.677644,9.23175213 C64.5246446,9.05913284 64.3694674,8.88839438 64.2139339,8.71803207 C63.9656464,8.44614532 63.7434726,8.42011087 63.4374936,8.62313997 C62.7545001,9.07631756 62.0171808,9.29045338 61.1891269,9.17534746 C60.3306632,9.05600475 59.7229816,8.49799644 59.5607761,7.62967333 L59.6845931,7.62967333 C61.2646367,7.62967333 62.8447001,7.62969313 64.4247436,7.62963374 C64.4709325,7.62961394 64.5172006,7.63068303 64.5632706,7.62812908 C64.8513918,7.61217185 65.0488379,7.42801029 65.0573114,7.15048109 C65.0718234,6.67604039 65.0636072,6.20227282 64.9594694,5.73557315" id="Fill-32" fill="#0F87FE"></path>
            </g>
        </g>
    </g>
</svg>