<?xml version="1.0" encoding="UTF-8" standalone="no"?>
<svg width="42px" height="25px" viewBox="0 0 494 264" version="1.1" xmlns="http://www.w3.org/2000/svg" xmlns:xlink="http://www.w3.org/1999/xlink">
    <!-- Generator: Sketch 50.2 (55047) - http://www.bohemiancoding.com/sketch -->
    <title>Group 8</title>
    <desc>Created with Sketch.</desc>
    <defs>
        <polygon id="path-1" points="0.491449162 0.304617021 105.798008 0.304617021 105.798008 138.999939 0.491449162 138.999939"></polygon>
    </defs>
    <g id="Page-1" stroke="none" stroke-width="1" fill="none" fill-rule="evenodd">
        <g id="Group-8">
            <g id="Group" transform="translate(0.000000, 184.000000)" fill="#1A3582">
                <path d="M85.5114449,77.8623116 L68,77.8623116 C68.9688649,72.8480176 69.9137712,68.0104699 70.8388093,63.1693873 C74.6640143,43.1546305 78.5026596,23.1422302 82.2752724,3.11745768 C82.6778948,0.981772594 83.4077574,-0.091666916 85.8328416,0.00613273202 C90.6654791,0.201142874 95.5115569,0.0638698736 100.668513,0.0638698736 C98.7442232,10.0465038 96.8976532,19.6255669 94.920187,29.8851035 C96.7807816,28.4157522 98.1639561,27.3028393 99.5681675,26.2182059 C106.051615,21.2127492 113.294728,19.3645715 121.251926,21.398922 C127.099008,22.893607 131.106533,27.3982823 130.997842,33.4530232 C130.886814,39.6674249 129.823868,45.8965555 128.794814,52.0543984 C127.471244,59.9755808 125.736286,67.8260646 124.256693,75.7219132 C123.992563,77.1341166 123.730186,78.0343447 121.976529,77.9989954 C116.824832,77.8947151 111.670214,77.9618787 106.122907,77.9618787 C107.263573,72.0043483 108.36275,66.2960303 109.449071,60.5853557 C110.529548,54.9070845 111.688329,49.2417748 112.634404,43.5411158 C113.17026,40.3107817 113.548924,36.8094364 109.971486,34.965972 C106.385284,33.1183834 102.733048,33.8118183 99.459477,35.9351311 C94.938302,38.8679423 92.5862626,43.3790983 91.4981887,48.5076883 C89.6282443,57.3196722 87.9768497,66.1787886 86.2202707,75.015517 C86.0344449,75.9528618 85.7603812,76.8731212 85.5114449,77.8623116" id="Fill-10"></path>
                <path d="M257,77.8485747 C258.738504,68.8300936 260.418646,60.0861854 262.111757,51.3440448 C265.201449,35.3887691 268.35304,19.4452776 271.338976,3.47055794 C271.823564,0.878024496 272.753242,-0.128939061 275.501011,0.0130610664 C280.172983,0.255227258 284.866768,0.0796420388 289.957302,0.0796420388 C287.228988,14.16358 284.576133,27.8604055 281.765875,42.3685762 C283.36761,41.0805584 284.45528,40.2373958 285.508759,39.3529884 C291.741789,34.1160708 297.921762,28.8155184 304.235557,23.6787669 C305.33207,22.7861105 306.969766,22.1574211 308.377548,22.1167655 C314.31051,21.9464832 320.251137,22.0448816 327,22.0448816 C315.8079,30.9549477 305.268402,39.3453286 294.540256,47.8859587 C302.382685,57.8842996 310.08186,67.6988063 318.150076,77.9840935 C311.304531,77.9840935 305.062068,78.054799 298.825501,77.8980685 C298.020212,77.8780353 297.085818,76.8074369 296.479198,76.0173034 C290.992505,68.8719277 285.566532,61.6805934 279.585228,53.7945781 C277.907445,62.204403 276.359946,69.9649162 274.787098,77.8485747 L257,77.8485747 Z" id="Fill-12"></path>
                <path d="M67.485305,22.3296297 C63.3241385,20.5337783 59.3826006,18.1916715 55.1219242,17.1044757 C34.8313064,11.927156 22.8435906,26.7250661 20.5442621,40.4151112 C19.6551491,45.7123118 19.3701619,51.0171895 21.4716481,56.0911636 C24.5387934,63.4966147 32.6326655,67.2967803 41.5120188,65.9149019 C47.8865466,64.9233746 53.7982646,62.7289044 59.4461928,59.6952679 C59.9443316,59.4277504 60.4777994,59.2269647 61.5046954,58.765748 C60.4206842,64.1615698 59.4532586,69.1369227 58.3786685,74.0886537 C58.2667933,74.6053818 57.5931872,75.2065579 57.0520648,75.3919895 C45.208609,79.444909 33.1684886,81.7929212 20.7709564,78.3010207 C8.00953569,74.7063652 0.122927035,64.1019247 0.00280846226,50.818766 C-0.167948333,31.9260076 7.443683,17.1363652 23.9941381,7.90612603 C38.5084657,-0.187902024 53.6769684,0.545556523 68.6941453,7.02207817 C69.3653962,7.31144588 70.1043609,8.65493879 69.9877752,9.37304313 C69.2682414,13.7974163 68.3125922,18.1834039 67.485305,22.3296297" id="Fill-14"></path>
                <path d="M180.211616,44.1010468 C180.713889,39.5592961 179.987271,35.8275616 175.871926,33.7223446 C168.758838,30.0825771 158.073898,36.0627847 157.159442,44.1010468 L180.211616,44.1010468 Z M196.097708,55.3646358 L154.705191,55.3646358 C152.795021,61.3890583 156.679544,66.9695635 163.238541,67.7636625 C171.337921,68.7446429 178.985668,66.8734699 186.453232,63.957647 C188.260946,63.2513883 190.049817,62.4973775 192.324474,61.5712235 C191.445937,65.9626437 190.689877,69.9661522 189.800152,73.9395945 C189.665898,74.5420957 189.009351,75.2849054 188.427585,75.4924205 C177.65903,79.328502 166.554841,81.2763141 155.253393,79.0791302 C140.584417,76.2275663 134.084892,66.2467979 136.488503,51.3009951 C139.070531,35.2462836 152.758513,19.583021 175.843662,21.1022437 C186.332522,21.7931746 194.112756,27.011118 196.872021,35.702581 C198.942943,42.2269262 197.850071,48.6834752 196.097708,55.3646358 Z" id="Fill-16"></path>
                <path d="M363.378501,45.2396555 C363.458847,37.9947268 360.171688,33.7939651 354.144544,33.7261729 C350.414014,33.6843185 347.00135,34.8361973 344.358134,37.6363122 C338.368524,43.9798986 336.896487,51.7164684 338.128658,60.0148297 C338.8377,64.7897623 342.19289,67.1972715 347.025395,67.2833382 C350.719565,67.3487725 353.847204,66.0542352 356.518571,63.4628026 C361.675981,58.4603238 363.039522,52.0542506 363.378501,45.2396555 M355.111632,21.0018617 C362.265969,20.9411434 368.985146,22.3524013 374.488572,27.1803887 C382.147859,33.8977168 383.10615,42.7260366 381.082245,51.9888164 C377.193955,69.7857566 362.121111,80.927266 343.987485,79.9392676 C337.075946,79.5625785 330.654109,78.0104306 325.572941,72.965508 C319.085419,66.525244 317.957052,58.41788 319.791528,50.0375785 C323.129124,34.7855005 332.195937,24.8106074 347.847625,21.7057222 C350.222239,21.2347134 352.687755,21.2246919 355.111632,21.0018617" id="Fill-18"></path>
                <path d="M450,22.0181001 C446.374227,40.7207702 442.831455,58.9967857 439.269979,77.3715747 L421.497084,77.3715747 C421.919691,74.9899066 422.318918,72.7385726 422.792379,70.0640908 C420.209972,71.9670875 418.051342,73.6953311 415.757688,75.2213521 C410.091358,78.9899401 403.793747,79.7094085 397.295645,78.3908702 C391.28854,77.1716899 386.790664,71.8583782 387.00752,65.5748655 C387.206841,59.7916492 388.159608,54.007264 389.134002,48.283078 C390.615174,39.5863364 392.402049,30.9410271 394.081958,22.15311 L411.777112,22.15311 C410.561311,28.4138288 409.348434,34.5529803 408.181733,40.7008987 C407.203248,45.8546532 406.314778,51.025357 405.317004,56.1750204 C404.7319,59.1966705 404.723132,62.129483 407.378604,64.1534626 C410.12526,66.2469927 413.328426,65.7887773 416.288432,64.6759684 C421.801034,62.6040632 424.71837,58.043534 425.980347,52.6817123 C428.204443,43.2356949 429.890781,33.664019 431.927247,24.1718294 C432.103772,23.3506653 433.198576,22.1361607 433.899999,22.1127824 C439.141384,21.9386137 444.390368,22.0181001 450,22.0181001" id="Fill-20"></path>
                <path d="M484.148735,65.4325768 C483.231983,70.076865 482.438482,74.0979296 481.716585,77.7520439 C474.490563,77.7520439 467.495783,78.4119626 460.680597,77.5786304 C452.852407,76.6216004 448.930095,70.5799419 450.252988,62.6088353 C452.152225,51.1664977 454.427671,39.7863048 456.585147,28.3877644 C457.846415,21.7222905 459.276711,15.0887768 460.439378,8.40673092 C460.766286,6.52344749 461.481728,5.9676954 463.284125,6.00143115 C468.33741,6.09671985 473.393043,6.03457505 478.729805,6.03457505 C477.720909,11.5524416 476.787137,16.6571932 475.799956,22.0566887 L494,22.0566887 C493.208847,26.0984683 492.583202,29.8295238 491.655299,33.4824544 C491.506224,34.0683911 490.014889,34.6241432 489.128657,34.6490012 C484.634109,34.7774337 480.131931,34.8117613 475.637383,34.6981251 C473.647175,34.6478174 473.009792,35.3763913 472.674667,37.3330647 C471.4134,44.6939686 469.868656,52.0045647 468.528743,59.3518559 C467.758718,63.5717838 469.125629,65.2674492 473.373088,65.4094944 C476.774812,65.5231306 480.183579,65.4325768 484.148735,65.4325768" id="Fill-22"></path>
                <path d="M249.68354,62.5599569 C248.821712,67.2424872 248.134121,71.2998522 247.27931,75.32173 C247.12846,76.0320646 246.391756,76.9701084 245.740415,77.1641049 C234.577583,80.4827455 223.376162,81.7082353 212.510351,76.2544508 C205.736175,72.8541897 202.466609,66.8574516 202.059668,59.3294427 C200.909005,38.0282767 216.523054,21.3445813 238.316068,21.0039046 C243.775284,20.918144 249.257888,22.2660645 254.726459,22.9852709 C256.622597,23.2348639 257.321297,24.2356017 256.865242,26.2424004 C255.982366,30.1270612 255.276065,34.0519408 254.479722,38.0448374 C251.92932,36.8690296 249.710435,35.6370338 247.355319,34.7959882 C232.656889,29.5456633 218.921437,40.9470954 220.944452,57.1274646 C221.734363,63.4489102 226.171548,67.3246992 233.044536,67.0177353 C237.589303,66.814867 242.078524,65.1694458 246.571839,64.0823559 C247.481611,63.8623355 248.300172,63.2519564 249.68354,62.5599569" id="Fill-24"></path>
            </g>
            <g id="Group-2" transform="translate(20.000000, 0.000000)">
                <path d="M388.007892,89.6709315 C384.465807,72.8422783 381.004237,56.3940877 377.542667,39.9464897 C377.330941,39.9636757 377.119812,39.9808617 376.908086,39.9980477 C370.900438,56.4752768 364.892789,72.9525058 358.797468,89.6709315 L388.007892,89.6709315 Z M430,137 L397.997777,137 C396.747699,131.17513 395.372972,125.359742 394.308378,119.488055 C393.932043,117.410919 393.021323,117.007937 391.141435,117.015641 C377.82477,117.067792 364.506911,117.068384 351.190246,116.984232 C349.2203,116.971787 348.452123,117.766492 347.850344,119.506426 C345.822546,125.369224 343.618807,131.171574 341.488427,136.981036 L305,136.981036 C307.860984,130.184861 310.603282,123.65892 313.355719,117.137128 C327.943336,82.5731121 342.534532,48.0114663 357.119764,13.4468575 C359.879358,6.9078795 364.653628,3.13288493 371.930439,3.05702946 C381.172425,2.96102489 390.416199,3.04991802 399.658781,3.00013787 C401.309051,2.99065593 402.092735,3.46771569 402.458335,5.22305853 C408.762399,35.5172418 415.134455,65.7977948 421.509492,96.0783477 C424.19036,108.811398 426.914766,121.53556 429.606369,134.26624 C429.785292,135.11191 429.856265,135.9801 430,137 Z" id="Fill-1" fill="#1A3582"></path>
                <path d="M0.0398905161,6.70129073 C-0.186929531,4.13707069 0.509562393,3.03060027 3.26702914,3.04775027 C21.3758192,3.15892955 39.4911406,3.37300881 57.5933992,3.00517097 C68.6594861,2.78103827 74.5526509,9.87522269 76.0061993,18.0256103 C80.3223117,42.2183404 85.0326871,66.3406964 89.5987766,90.4890731 C89.7786888,91.4411935 90.0631045,92.3743898 90.4965564,94.1053566 C92.3520869,89.5132975 93.9695157,85.563476 95.5465682,81.597096 C105.619872,56.2559076 115.690801,30.9135364 125.733229,5.56052033 C126.314529,4.09390001 126.870892,3.04775027 128.794112,3.06194337 C139.777665,3.14296231 150.762405,3.10274853 161.746552,3.11339336 C162.025624,3.11398474 162.304696,3.22812091 163,3.38010536 C161.616516,6.71430107 160.294191,9.94500543 158.939209,13.1621081 C141.93008,53.5420686 124.898389,93.9113843 107.957544,134.319731 C107.089452,136.390741 106.068762,137.024699 103.853407,136.99927 C92.679254,136.873306 81.5021322,136.941315 70.0958152,136.941315 C68.2836299,130.029275 66.4821324,123.215404 64.7121048,116.393846 C57.1551971,87.2761101 49.5656321,58.1666536 42.0930397,29.0276282 C40.6947119,23.5757037 37.8796495,19.4094375 32.5149398,17.5176156 C22.5770154,14.0125113 12.5476504,10.7652483 2.55272412,7.41981641 C1.73272809,7.1448251 0.887793727,6.94198205 0.0398905161,6.70129073" id="Fill-3" fill="#1A3582"></path>
                <g id="Group-7" transform="translate(208.000000, 0.000000)">
                    <mask id="mask-2" fill="white">
                        <use xlink:href="#path-1"></use>
                    </mask>
                    <g id="Clip-6"></g>
                    <path d="M0.491449162,131.74071 C2.5824324,121.963391 4.61005251,112.480634 6.70222011,102.696217 C9.87333743,104.013463 12.7317844,105.261506 15.6352369,106.3948 C26.7030581,110.716812 38.1569799,112.199085 49.8377061,109.995787 C53.2610916,109.34988 56.7555385,107.560625 59.5464771,105.4218 C64.3881307,101.710795 64.7493598,95.0997187 60.3328905,90.9019187 C57.2423095,87.9645826 53.4369687,85.7186974 49.7701978,83.4574336 C42.6581307,79.0721315 34.9071028,75.5580932 28.3262201,70.5061826 C7.04923687,54.1710209 13.572086,28.67014 27.7257508,15.7413655 C36.6860078,7.55574426 47.5134045,3.33132723 59.2829575,1.43382936 C73.9364212,-0.928579149 88.3470916,0.475616596 102.445092,5.08272723 C103.548913,5.44353574 104.597661,5.9741017 105.798008,6.47805064 C103.78993,15.8176677 101.812645,25.0159187 99.8774045,34.0172038 C94.2570358,32.4337868 88.9457844,30.6143655 83.4918179,29.4792974 C76.0208905,27.9248634 68.4427788,27.5782506 60.9499408,29.6253953 C59.6305665,29.9856123 58.3194827,30.4883783 57.1102536,31.1260038 C49.3213263,35.2327145 48.3448235,42.6647783 55.4699184,47.7462634 C61.3697955,51.9535272 68.1378067,54.9245783 74.2579743,58.8526591 C79.7841866,62.4004123 85.4359408,65.9907528 90.1816615,70.4630038 C101.188488,80.8353613 101.633215,96.586723 96.0779855,109.676974 C90.1627117,123.612463 78.7010916,131.362749 64.6895497,135.361217 C43.7613598,141.333485 23.0007564,139.622306 2.5546,132.649238 C1.91682346,132.430978 1.31516983,132.106842 0.491449162,131.74071" id="Fill-5" fill="#1A3582" mask="url(#mask-2)"></path>
                </g>
                <path d="M213,3 C203.442544,47.88444 193.965952,92.3902986 184.466932,137 L150,137 C159.524402,92.2846755 169.022833,47.6945559 178.543103,3 L213,3 Z" id="Fill-8" fill="#1A3582"></path>
            </g>
        </g>
    </g>
</svg>
